<svg width="24" height="20" viewBox="0 0 24 20" fill="none" xmlns="http://www.w3.org/2000/svg">
<path d="M3.6 8.39995C4.92375 8.39995 6 7.3237 6 5.99995C6 4.6762 4.92375 3.59995 3.6 3.59995C2.27625 3.59995 1.2 4.6762 1.2 5.99995C1.2 7.3237 2.27625 8.39995 3.6 8.39995ZM20.4 8.39995C21.7238 8.39995 22.8 7.3237 22.8 5.99995C22.8 4.6762 21.7238 3.59995 20.4 3.59995C19.0763 3.59995 18 4.6762 18 5.99995C18 7.3237 19.0763 8.39995 20.4 8.39995ZM21.6 9.59995H19.2C18.54 9.59995 17.9438 9.8662 17.5088 10.2975C19.02 11.1262 20.0925 12.6225 20.325 14.4H22.8C23.4638 14.4 24 13.8637 24 13.2V12C24 10.6762 22.9238 9.59995 21.6 9.59995ZM12 9.59995C14.3213 9.59995 16.2 7.7212 16.2 5.39995C16.2 3.0787 14.3213 1.19995 12 1.19995C9.67875 1.19995 7.8 3.0787 7.8 5.39995C7.8 7.7212 9.67875 9.59995 12 9.59995ZM14.88 10.8H14.5688C13.7888 11.175 12.9225 11.4 12 11.4C11.0775 11.4 10.215 11.175 9.43125 10.8H9.12C6.735 10.8 4.8 12.735 4.8 15.12V16.2C4.8 17.1937 5.60625 18 6.6 18H17.4C18.3938 18 19.2 17.1937 19.2 16.2V15.12C19.2 12.735 17.265 10.8 14.88 10.8ZM6.49125 10.2975C6.05625 9.8662 5.46 9.59995 4.8 9.59995H2.4C1.07625 9.59995 0 10.6762 0 12V13.2C0 13.8637 0.53625 14.4 1.2 14.4H3.67125C3.9075 12.6225 4.98 11.1262 6.49125 10.2975Z" fill="#43907F"/>
</svg>
