<svg width="14" height="14" viewBox="0 0 14 14" fill="none" xmlns="http://www.w3.org/2000/svg">
<path d="M11.6666 2.33331H2.33329C1.69163 2.33331 1.17246 2.85831 1.17246 3.49998L1.16663 10.5C1.16663 11.1416 1.69163 11.6666 2.33329 11.6666H11.6666C12.3083 11.6666 12.8333 11.1416 12.8333 10.5V3.49998C12.8333 2.85831 12.3083 2.33331 11.6666 2.33331ZM11.4333 4.81248L7.30913 7.39081C7.12246 7.50748 6.87746 7.50748 6.69079 7.39081L2.56663 4.81248C2.50813 4.77964 2.45691 4.73528 2.41606 4.68208C2.37521 4.62887 2.34558 4.56793 2.32896 4.50295C2.31234 4.43796 2.30909 4.37028 2.31938 4.30399C2.32968 4.23771 2.35332 4.1742 2.38887 4.11732C2.42443 4.06044 2.47115 4.01136 2.52622 3.97306C2.58128 3.93476 2.64355 3.90803 2.70925 3.89449C2.77495 3.88095 2.84271 3.88088 2.90843 3.89428C2.97416 3.90769 3.03648 3.93429 3.09163 3.97248L6.99996 6.41665L10.9083 3.97248C10.9634 3.93429 11.0258 3.90769 11.0915 3.89428C11.1572 3.88088 11.225 3.88095 11.2907 3.89449C11.3564 3.90803 11.4186 3.93476 11.4737 3.97306C11.5288 4.01136 11.5755 4.06044 11.611 4.11732C11.6466 4.1742 11.6702 4.23771 11.6805 4.30399C11.6908 4.37028 11.6876 4.43796 11.671 4.50295C11.6543 4.56793 11.6247 4.62887 11.5839 4.68208C11.543 4.73528 11.4918 4.77964 11.4333 4.81248Z" fill="#43907F"/>
</svg>
