<svg width="22" height="22" viewBox="0 0 22 22" fill="none" xmlns="http://www.w3.org/2000/svg">
<path d="M18.3333 7.33325H3.66659V5.49992H18.3333V7.33325ZM16.4999 1.83325H5.49992V3.66659H16.4999V1.83325ZM20.1666 10.9999V18.3333C20.1666 18.8195 19.9734 19.2858 19.6296 19.6296C19.2858 19.9734 18.8195 20.1666 18.3333 20.1666H3.66659C3.1808 20.1651 2.71533 19.9715 2.37183 19.628C2.02832 19.2845 1.8347 18.819 1.83325 18.3333V10.9999C1.8347 10.5141 2.02832 10.0487 2.37183 9.70516C2.71533 9.36166 3.1808 9.16804 3.66659 9.16659H18.3333C18.819 9.16804 19.2845 9.36166 19.628 9.70516C19.9715 10.0487 20.1651 10.5141 20.1666 10.9999ZM12.7663 15.6218L14.8958 13.8013L12.0917 13.5666L10.9999 10.9999L9.90817 13.5666L7.10409 13.8013L9.2335 15.6218L8.59184 18.3333L10.9999 16.8923L13.408 18.3333L12.7663 15.6218Z" fill="#43907F"/>
</svg>
