<svg width="14" height="14" viewBox="0 0 14 14" fill="none" xmlns="http://www.w3.org/2000/svg">
<path d="M11.9508 9.99833L9.57954 7.84233C9.46752 7.74032 9.3202 7.68589 9.16876 7.69057C9.01731 7.69525 8.87363 7.75867 8.76813 7.86741L7.37221 9.303C7.03621 9.23883 6.36071 9.02825 5.66538 8.33466C4.97004 7.63875 4.75946 6.9615 4.69704 6.62783L6.13146 5.23133C6.2402 5.12582 6.30362 4.98214 6.3083 4.8307C6.31298 4.67926 6.25856 4.53194 6.15654 4.41991L4.00113 2.04925C3.89907 1.93687 3.75722 1.86871 3.60571 1.85923C3.45421 1.84976 3.30497 1.89971 3.18971 1.9985L1.92388 3.08408C1.82302 3.1853 1.76283 3.32001 1.75471 3.46266C1.74596 3.6085 1.57913 7.063 4.25779 9.74283C6.59463 12.0791 9.52179 12.25 10.328 12.25C10.4458 12.25 10.5181 12.2465 10.5374 12.2453C10.6799 12.2369 10.8144 12.1765 10.9154 12.0756L12.0004 10.8092C12.0995 10.6943 12.1499 10.5452 12.1406 10.3937C12.1313 10.2422 12.0632 10.1003 11.9508 9.99833Z" fill="#43907F"/>
</svg>
