<svg width="20" height="20" viewBox="0 0 20 20" fill="none" xmlns="http://www.w3.org/2000/svg">
<path d="M10.7999 12.8001C10.7999 13.1184 10.6735 13.4236 10.4484 13.6486C10.2234 13.8737 9.91816 14.0001 9.5999 14.0001C9.28164 14.0001 8.97642 13.8737 8.75137 13.6486C8.52633 13.4236 8.3999 13.1184 8.3999 12.8001C8.3999 12.4818 8.52633 12.1766 8.75137 11.9516C8.97642 11.7265 9.28164 11.6001 9.5999 11.6001C9.91816 11.6001 10.2234 11.7265 10.4484 11.9516C10.6735 12.1766 10.7999 12.4818 10.7999 12.8001Z" fill="#43907F"/>
<path d="M11.4776 0.528076L14.0216 4.09288L15.6992 3.52088L17.2304 8.00008H18V17.6001H1.19995V8.00008H1.60795V7.99208L2.12635 7.99688L11.4776 0.528076ZM7.51755 8.00008H15.54L14.7104 5.57368L13.4928 5.96328L7.51755 8.00008ZM6.27115 6.73368L12.44 4.63208L11.1568 2.83208L6.27115 6.73368ZM4.39995 9.60008H2.79995V11.2001C3.2243 11.2001 3.63126 11.0315 3.93132 10.7314C4.23138 10.4314 4.39995 10.0244 4.39995 9.60008ZM12.4 12.8001C12.4 12.4324 12.3275 12.0683 12.1868 11.7286C12.0461 11.3889 11.8399 11.0802 11.5799 10.8202C11.3198 10.5602 11.0112 10.3539 10.6715 10.2132C10.3318 10.0725 9.96765 10.0001 9.59995 10.0001C9.23225 10.0001 8.86815 10.0725 8.52844 10.2132C8.18873 10.3539 7.88006 10.5602 7.62005 10.8202C7.36005 11.0802 7.1538 11.3889 7.01309 11.7286C6.87238 12.0683 6.79995 12.4324 6.79995 12.8001C6.79995 13.5427 7.09495 14.2549 7.62005 14.78C8.14515 15.3051 8.85735 15.6001 9.59995 15.6001C10.3426 15.6001 11.0547 15.3051 11.5799 14.78C12.105 14.2549 12.4 13.5427 12.4 12.8001ZM16.4 16.0001V14.4001C15.9756 14.4001 15.5686 14.5686 15.2686 14.8687C14.9685 15.1688 14.8 15.5757 14.8 16.0001H16.4ZM14.8 9.60008C14.8 10.0244 14.9685 10.4314 15.2686 10.7314C15.5686 11.0315 15.9756 11.2001 16.4 11.2001V9.60008H14.8ZM2.79995 16.0001H4.39995C4.39995 15.5757 4.23138 15.1688 3.93132 14.8687C3.63126 14.5686 3.2243 14.4001 2.79995 14.4001V16.0001Z" fill="#43907F"/>
</svg>
