<svg width="20" height="20" viewBox="0 0 20 20" fill="none" xmlns="http://www.w3.org/2000/svg">
<path d="M3.14831 3.04591C2.99748 3.34591 2.92331 3.71758 2.77498 4.45925L2.27665 6.95091C2.20602 7.29064 2.20547 7.64121 2.27504 7.98116C2.3446 8.32111 2.48282 8.64328 2.68122 8.92796C2.87962 9.21264 3.13403 9.45382 3.42889 9.63676C3.72374 9.8197 4.05282 9.94054 4.396 9.99187C4.73917 10.0432 5.08921 10.024 5.42469 9.93532C5.76017 9.84668 6.07403 9.6905 6.34705 9.47635C6.62008 9.26219 6.84652 8.99457 7.01252 8.68986C7.17853 8.38516 7.28059 8.04977 7.31248 7.70425L7.37081 7.12925C7.33923 7.49495 7.38428 7.86321 7.50308 8.21051C7.62189 8.55782 7.81183 8.87652 8.06078 9.14625C8.30973 9.41599 8.6122 9.63083 8.94888 9.77705C9.28556 9.92327 9.64904 9.99765 10.0161 9.99544C10.3831 9.99323 10.7457 9.91447 11.0806 9.76421C11.4155 9.61394 11.7154 9.39547 11.961 9.12276C12.2067 8.85004 12.3928 8.52907 12.5074 8.18036C12.622 7.83165 12.6626 7.46287 12.6266 7.09758L12.6875 7.70425C12.7194 8.04977 12.8214 8.38516 12.9874 8.68986C13.1534 8.99457 13.3799 9.26219 13.6529 9.47635C13.9259 9.6905 14.2398 9.84668 14.5753 9.93532C14.9107 10.024 15.2608 10.0432 15.604 9.99187C15.9471 9.94054 16.2762 9.8197 16.5711 9.63676C16.8659 9.45382 17.1203 9.21264 17.3187 8.92796C17.5171 8.64328 17.6554 8.32111 17.7249 7.98116C17.7945 7.64121 17.7939 7.29064 17.7233 6.95091L17.225 4.45925C17.0766 3.71758 17.0025 3.34675 16.8516 3.04591C16.6945 2.73261 16.4732 2.45586 16.2021 2.23362C15.9311 2.01139 15.6163 1.84863 15.2783 1.75591C14.9533 1.66675 14.575 1.66675 13.8183 1.66675H6.18165C5.42498 1.66675 5.04665 1.66675 4.72165 1.75591C4.38362 1.84863 4.06886 2.01139 3.79781 2.23362C3.52676 2.45586 3.30548 2.73261 3.14831 3.04591ZM15.2241 11.2501C15.8753 11.2517 16.5157 11.0849 17.0833 10.7659V11.6667C17.0833 14.8092 17.0833 16.3809 16.1066 17.3567C15.3208 18.1434 14.15 18.2959 12.0833 18.3259V15.4167C12.0833 14.6376 12.0833 14.2484 11.9158 13.9584C11.8061 13.7684 11.6483 13.6106 11.4583 13.5009C11.1683 13.3334 10.7791 13.3334 9.99998 13.3334C9.22081 13.3334 8.83165 13.3334 8.54165 13.5009C8.35164 13.6106 8.19385 13.7684 8.08415 13.9584C7.91665 14.2484 7.91665 14.6376 7.91665 15.4167V18.3259C5.84998 18.2959 4.67915 18.1426 3.89331 17.3567C2.91664 16.3809 2.91665 14.8092 2.91665 11.6667V10.7659C3.48449 11.0851 4.12526 11.2519 4.77665 11.2501C5.73968 11.2507 6.66686 10.8848 7.36998 10.2267C8.08641 10.887 9.0257 11.2525 9.99998 11.2501C10.9743 11.2525 11.9135 10.887 12.63 10.2267C13.3331 10.8848 14.2611 11.2507 15.2241 11.2501Z" fill="#43907F"/>
</svg>
